<?xml version="1.0" encoding="UTF-8"?>
<svg id="Layer_1" data-name="Layer 1" xmlns="http://www.w3.org/2000/svg" viewBox="0 0 350 145.53">
  <defs>
    <style>
      .cls-1 {
        fill: #231f20;
      }

      .cls-2 {
        fill: #fff;
      }

      .cls-3 {
        fill: none;
      }
    </style>
  </defs>
  <rect class="cls-3" x="47.25" y="112.12" width="56.86" height="33.42"/>
  <rect class="cls-1" x="0" y="2.7" width="350" height="40.84"/>
  <g>
    <path class="cls-2" d="M3.5,39.1V6.9h20.65v5.75h-14.35v7.73h11.96v5.75h-11.96v12.97H3.5Z"/>
    <path class="cls-2" d="M25.85,39.1L38.55,6.9h6.3l-12.33,32.2h-6.67ZM31.83,32.02v-5.57h20.19v5.57h-20.19ZM51.29,39.1L38.96,6.9h6.3l12.7,32.2h-6.67Z"/>
    <path class="cls-2" d="M61.82,39.1V6.9h11.96c2.27,0,4.28.45,6.03,1.33,1.75.89,3.11,2.11,4.09,3.66.98,1.55,1.47,3.35,1.47,5.4s-.51,3.83-1.54,5.41c-1.03,1.58-2.43,2.81-4.21,3.68-1.78.87-3.8,1.31-6.07,1.31h-5.43v11.41h-6.3ZM68.12,21.94h5.7c.95,0,1.8-.2,2.55-.6.75-.4,1.35-.95,1.79-1.66.44-.71.67-1.5.67-2.39,0-1.38-.5-2.5-1.5-3.36-1-.86-2.28-1.29-3.84-1.29h-5.38v9.29ZM79.53,39.1l-7.45-12.93,4.83-3.45,9.75,16.38h-7.13Z"/>
    <path class="cls-2" d="M91.49,39.1V6.9h6.3v32.2h-6.3Z"/>
    <path class="cls-2" d="M115.6,39.65c-1.63,0-3.14-.2-4.55-.6-1.41-.4-2.67-.96-3.77-1.68s-2.02-1.53-2.74-2.42c-.72-.89-1.19-1.82-1.4-2.81l6.16-1.84c.4,1.04,1.1,1.94,2.12,2.69,1.01.75,2.28,1.14,3.82,1.17,1.62.03,2.95-.32,3.98-1.06,1.03-.74,1.54-1.69,1.54-2.85,0-1.01-.41-1.86-1.22-2.55-.81-.69-1.92-1.22-3.33-1.59l-4.19-1.1c-1.56-.4-2.94-1-4.14-1.82-1.2-.81-2.13-1.82-2.81-3.01-.67-1.2-1.01-2.59-1.01-4.19,0-3.04,1-5.41,3.01-7.11,2.01-1.7,4.85-2.55,8.53-2.55,2.05,0,3.86.3,5.4.9,1.55.6,2.84,1.45,3.89,2.55,1.04,1.1,1.84,2.41,2.39,3.91l-6.12,1.89c-.37-1.04-1.04-1.93-2.02-2.67-.98-.74-2.22-1.1-3.73-1.1s-2.74.35-3.61,1.06c-.87.71-1.31,1.7-1.31,2.99,0,1.01.34,1.81,1.03,2.39s1.63,1.03,2.83,1.33l4.23,1.06c2.76.67,4.91,1.89,6.44,3.63,1.53,1.75,2.3,3.7,2.3,5.84,0,1.9-.46,3.57-1.38,4.99-.92,1.43-2.25,2.54-4,3.33-1.75.8-3.86,1.2-6.35,1.2Z"/>
    <path class="cls-2" d="M140.53,39.1l12.7-32.2h6.3l-12.33,32.2h-6.67ZM146.51,32.02v-5.57h20.19v5.57h-20.19ZM165.96,39.1l-12.33-32.2h6.3l12.7,32.2h-6.67Z"/>
    <path class="cls-2" d="M176.5,39.1V6.85h6.3v32.25h-6.3ZM181.19,25.53v-5.8h19.5v5.8h-19.5ZM197.7,39.1V6.9h6.3v32.2h-6.3Z"/>
    <path class="cls-2" d="M211,39.1V6.9h6.85l9.38,13.89,9.38-13.89h6.81v32.2h-6.26v-22.36l-9.94,14.63-9.94-14.58v22.31h-6.3Z"/>
    <path class="cls-2" d="M247.29,39.1l12.7-32.2h6.3l-12.33,32.2h-6.67ZM253.27,32.02v-5.57h20.19v5.57h-20.19ZM272.73,39.1l-12.33-32.2h6.3l12.7,32.2h-6.67Z"/>
    <path class="cls-2" d="M283.26,39.1V6.9h10.3c3.28,0,6.19.69,8.72,2.07,2.53,1.38,4.51,3.27,5.93,5.68,1.43,2.41,2.14,5.19,2.14,8.35s-.71,5.9-2.14,8.33c-1.43,2.42-3.4,4.32-5.93,5.7-2.53,1.38-5.44,2.07-8.72,2.07h-10.3ZM289.57,33.21h4c1.47,0,2.84-.26,4.09-.78,1.26-.52,2.35-1.24,3.29-2.16s1.66-2,2.19-3.24c.52-1.24.78-2.58.78-4.03s-.26-2.78-.78-4.02c-.52-1.24-1.25-2.32-2.19-3.24-.94-.92-2.03-1.64-3.29-2.16s-2.62-.78-4.09-.78h-4v20.42Z"/>
    <path class="cls-2" d="M330.23,39.61c-2.36,0-4.56-.41-6.6-1.24-2.04-.83-3.81-1.99-5.31-3.5-1.5-1.5-2.67-3.27-3.5-5.29-.83-2.02-1.24-4.22-1.24-6.58s.41-4.6,1.24-6.62c.83-2.02,1.99-3.79,3.5-5.29,1.5-1.5,3.27-2.67,5.31-3.5,2.04-.83,4.24-1.24,6.6-1.24s4.55.41,6.58,1.24c2.02.83,3.79,1.99,5.29,3.5,1.5,1.5,2.67,3.27,3.5,5.29.83,2.02,1.24,4.23,1.24,6.62s-.41,4.55-1.24,6.58c-.83,2.02-1.99,3.79-3.5,5.29s-3.27,2.67-5.29,3.5c-2.02.83-4.22,1.24-6.58,1.24ZM330.23,35.56c2.42,0,4.55-.54,6.39-1.61,1.84-1.07,3.29-2.56,4.35-4.46s1.59-4.06,1.59-6.49-.53-4.63-1.59-6.53c-1.06-1.9-2.51-3.39-4.37-4.46-1.86-1.07-3.98-1.61-6.37-1.61s-4.52.54-6.37,1.61c-1.86,1.07-3.32,2.56-4.39,4.46-1.07,1.9-1.61,4.08-1.61,6.53s.54,4.58,1.61,6.49c1.07,1.9,2.54,3.39,4.39,4.46,1.86,1.07,3.98,1.61,6.37,1.61ZM330.23,32.11c-1.75,0-3.27-.38-4.55-1.13-1.29-.75-2.28-1.81-2.97-3.17-.69-1.36-1.04-2.97-1.04-4.81s.34-3.44,1.04-4.81c.69-1.36,1.67-2.42,2.94-3.17,1.27-.75,2.78-1.13,4.53-1.13,1.47,0,2.87.39,4.19,1.17,1.32.78,2.33,1.83,3.04,3.15l.6,1.2-3.73,1.43-.6-.87c-.4-.61-.92-1.1-1.56-1.45-.64-.35-1.29-.53-1.93-.53-1.32,0-2.36.46-3.13,1.38s-1.15,2.13-1.15,3.63.39,2.71,1.17,3.63c.78.92,1.83,1.38,3.15,1.38.67,0,1.34-.22,2-.67s1.22-1.02,1.68-1.73l.37-.69,3.86,1.38-.51.97c-.74,1.47-1.77,2.65-3.1,3.52-1.33.87-2.77,1.31-4.3,1.31Z"/>
  </g>
</svg>